<svg xmlns="http://www.w3.org/2000/svg" viewBox="0 0 64 64">
  <defs>
    <linearGradient id="bg" x1="0%" y1="0%" x2="100%" y2="100%">
      <stop offset="0%" style="stop-color:#6366f1"/>
      <stop offset="100%" style="stop-color:#8b5cf6"/>
    </linearGradient>
  </defs>
  <!-- Rounded square background -->
  <rect width="64" height="64" rx="14" fill="url(#bg)"/>
  <!-- Camera/stream icon - simplified video camera -->
  <path d="M12 20h28a4 4 0 0 1 4 4v16a4 4 0 0 1-4 4H12a4 4 0 0 1-4-4V24a4 4 0 0 1 4-4z" fill="rgba(255,255,255,0.15)"/>
  <path d="M14 22h24a3 3 0 0 1 3 3v14a3 3 0 0 1-3 3H14a3 3 0 0 1-3-3V25a3 3 0 0 1 3-3z" fill="none" stroke="white" stroke-width="2"/>
  <!-- Lens/play triangle -->
  <path d="M22 28l10 4-10 4z" fill="white"/>
  <!-- Signal waves -->
  <path d="M48 26c3 2 5 5 5 6s-2 4-5 6" fill="none" stroke="white" stroke-width="2" stroke-linecap="round"/>
  <path d="M52 23c4 3 7 7 7 9s-3 6-7 9" fill="none" stroke="white" stroke-width="2" stroke-linecap="round" opacity="0.6"/>
  <!-- Live dot -->
  <circle cx="16" cy="40" r="3" fill="#ef4444"/>
</svg>
